<svg width="283" height="131" viewBox="0 0 283 131" fill="none" xmlns="http://www.w3.org/2000/svg">
<path d="M131.016 118.956H125.529V124.443H131.016V118.956Z" fill="#0065FF"/>
<path d="M131.016 112.747H125.529V118.234H131.016V112.747Z" fill="#0065FF"/>
<path d="M131.016 106.538H125.529V112.025H131.016V106.538Z" fill="#0065FF"/>
<path d="M131.016 100.329H125.529V105.816H131.016V100.329Z" fill="#0065FF"/>
<path d="M131.016 94.0479H125.529V99.5349H131.016V94.0479Z" fill="#0065FF"/>
<path d="M131.016 87.8389H125.529V93.3259H131.016V87.8389Z" fill="#0065FF"/>
<path d="M137.297 125.237H131.81V130.724H137.297V125.237Z" fill="#0065FF"/>
<path d="M137.297 118.956H131.81V124.443H137.297V118.956Z" fill="#0065FF"/>
<path d="M137.297 112.747H131.81V118.234H137.297V112.747Z" fill="#0065FF"/>
<path d="M137.297 106.538H131.81V112.025H137.297V106.538Z" fill="#0065FF"/>
<path d="M137.297 100.329H131.81V105.816H137.297V100.329Z" fill="#0065FF"/>
<path d="M137.297 94.0479H131.81V99.5349H137.297V94.0479Z" fill="#0065FF"/>
<path d="M137.297 87.8389H131.81V93.3259H137.297V87.8389Z" fill="#0065FF"/>
<path d="M143.506 125.237H138.019V130.724H143.506V125.237Z" fill="#0065FF"/>
<path d="M143.506 118.956H138.019V124.443H143.506V118.956Z" fill="#0065FF"/>
<path d="M149.715 125.237H144.228V130.724H149.715V125.237Z" fill="#0065FF"/>
<path d="M149.715 118.956H144.228V124.443H149.715V118.956Z" fill="#0065FF"/>
<path d="M155.924 125.237H150.437V130.724H155.924V125.237Z" fill="#0065FF"/>
<path d="M155.924 118.956H150.437V124.443H155.924V118.956Z" fill="#0065FF"/>
<path d="M155.924 112.747H150.437V118.234H155.924V112.747Z" fill="#0065FF"/>
<path d="M155.924 106.538H150.437V112.025H155.924V106.538Z" fill="#0065FF"/>
<path d="M155.924 100.329H150.437V105.816H155.924V100.329Z" fill="#0065FF"/>
<path d="M155.924 94.0479H150.437V99.5349H155.924V94.0479Z" fill="#0065FF"/>
<path d="M155.924 87.8389H150.437V93.3259H155.924V87.8389Z" fill="#0065FF"/>
<path d="M162.205 118.956H156.718V124.443H162.205V118.956Z" fill="#0065FF"/>
<path d="M162.205 112.747H156.718V118.234H162.205V112.747Z" fill="#0065FF"/>
<path d="M162.205 106.538H156.718V112.025H162.205V106.538Z" fill="#0065FF"/>
<path d="M162.205 100.329H156.718V105.816H162.205V100.329Z" fill="#0065FF"/>
<path d="M162.205 94.0479H156.718V99.5349H162.205V94.0479Z" fill="#0065FF"/>
<path d="M162.205 87.8389H156.718V93.3259H162.205V87.8389Z" fill="#0065FF"/>
<path d="M172.883 125.237H167.396V130.724H172.883V125.237Z" fill="#0065FF"/>
<path d="M172.883 100.329H167.396V105.816H172.883V100.329Z" fill="#0065FF"/>
<path d="M172.883 94.0479H167.396V99.5349H172.883V94.0479Z" fill="#0065FF"/>
<path d="M179.092 125.237H173.605V130.724H179.092V125.237Z" fill="#0065FF"/>
<path d="M179.092 106.538H173.605V112.025H179.092V106.538Z" fill="#0065FF"/>
<path d="M179.092 100.329H173.605V105.816H179.092V100.329Z" fill="#0065FF"/>
<path d="M179.092 94.0479H173.605V99.5349H179.092V94.0479Z" fill="#0065FF"/>
<path d="M179.092 87.8389H173.605V93.3259H179.092V87.8389Z" fill="#0065FF"/>
<path d="M185.373 125.237H179.886V130.724H185.373V125.237Z" fill="#0065FF"/>
<path d="M185.373 106.538H179.886V112.025H185.373V106.538Z" fill="#0065FF"/>
<path d="M185.373 100.329H179.886V105.816H185.373V100.329Z" fill="#0065FF"/>
<path d="M185.373 94.0479H179.886V99.5349H185.373V94.0479Z" fill="#0065FF"/>
<path d="M185.373 87.8389H179.886V93.3259H185.373V87.8389Z" fill="#0065FF"/>
<path d="M191.582 125.237H186.095V130.724H191.582V125.237Z" fill="#0065FF"/>
<path d="M191.582 118.956H186.095V124.443H191.582V118.956Z" fill="#0065FF"/>
<path d="M191.582 112.747H186.095V118.234H191.582V112.747Z" fill="#0065FF"/>
<path d="M191.582 106.538H186.095V112.025H191.582V106.538Z" fill="#0065FF"/>
<path d="M191.582 87.8389H186.095V93.3259H191.582V87.8389Z" fill="#0065FF"/>
<path d="M197.791 125.237H192.304V130.724H197.791V125.237Z" fill="#0065FF"/>
<path d="M197.791 118.956H192.304V124.443H197.791V118.956Z" fill="#0065FF"/>
<path d="M197.791 112.747H192.304V118.234H197.791V112.747Z" fill="#0065FF"/>
<path d="M197.791 106.538H192.304V112.025H197.791V106.538Z" fill="#0065FF"/>
<path d="M197.791 87.8389H192.304V93.3259H197.791V87.8389Z" fill="#0065FF"/>
<path d="M204 118.956H198.513V124.443H204V118.956Z" fill="#0065FF"/>
<path d="M204 112.747H198.513V118.234H204V112.747Z" fill="#0065FF"/>
<path d="M204 87.8389H198.513V93.3259H204V87.8389Z" fill="#0065FF"/>
<path d="M47.354 118.956H41.867V124.443H47.354V118.956Z" fill="#0065FF"/>
<path d="M47.354 112.747H41.867V118.234H47.354V112.747Z" fill="#0065FF"/>
<path d="M47.354 106.538H41.867V112.025H47.354V106.538Z" fill="#0065FF"/>
<path d="M47.354 100.329H41.867V105.816H47.354V100.329Z" fill="#0065FF"/>
<path d="M47.354 94.0479H41.867V99.5349H47.354V94.0479Z" fill="#0065FF"/>
<path d="M53.5628 125.237H48.0759V130.724H53.5628V125.237Z" fill="#0065FF"/>
<path d="M53.5628 118.956H48.0759V124.443H53.5628V118.956Z" fill="#0065FF"/>
<path d="M53.5628 112.747H48.0759V118.234H53.5628V112.747Z" fill="#0065FF"/>
<path d="M53.5628 106.538H48.0759V112.025H53.5628V106.538Z" fill="#0065FF"/>
<path d="M53.5628 100.329H48.0759V105.816H53.5628V100.329Z" fill="#0065FF"/>
<path d="M53.5628 94.0479H48.0759V99.5349H53.5628V94.0479Z" fill="#0065FF"/>
<path d="M53.5628 87.8389H48.0759V93.3259H53.5628V87.8389Z" fill="#0065FF"/>
<path d="M59.8441 125.237H54.3572V130.724H59.8441V125.237Z" fill="#0065FF"/>
<path d="M59.8441 118.956H54.3572V124.443H59.8441V118.956Z" fill="#0065FF"/>
<path d="M59.8441 94.0479H54.3572V99.5349H59.8441V94.0479Z" fill="#0065FF"/>
<path d="M59.8441 87.8389H54.3572V93.3259H59.8441V87.8389Z" fill="#0065FF"/>
<path d="M66.0531 125.237H60.566V130.724H66.0531V125.237Z" fill="#0065FF"/>
<path d="M66.0531 118.956H60.566V124.443H66.0531V118.956Z" fill="#0065FF"/>
<path d="M66.0531 94.0479H60.566V99.5349H66.0531V94.0479Z" fill="#0065FF"/>
<path d="M66.0531 87.8389H60.566V93.3259H66.0531V87.8389Z" fill="#0065FF"/>
<path d="M72.262 125.237H66.775V130.724H72.262V125.237Z" fill="#0065FF"/>
<path d="M72.262 118.956H66.775V124.443H72.262V118.956Z" fill="#0065FF"/>
<path d="M72.262 112.747H66.775V118.234H72.262V112.747Z" fill="#0065FF"/>
<path d="M72.262 106.538H66.775V112.025H72.262V106.538Z" fill="#0065FF"/>
<path d="M72.262 100.329H66.775V105.816H72.262V100.329Z" fill="#0065FF"/>
<path d="M72.262 94.0479H66.775V99.5349H72.262V94.0479Z" fill="#0065FF"/>
<path d="M72.262 87.8389H66.775V93.3259H72.262V87.8389Z" fill="#0065FF"/>
<path d="M78.4708 118.956H72.9839V124.443H78.4708V118.956Z" fill="#0065FF"/>
<path d="M78.4708 112.747H72.9839V118.234H78.4708V112.747Z" fill="#0065FF"/>
<path d="M78.4708 106.538H72.9839V112.025H78.4708V106.538Z" fill="#0065FF"/>
<path d="M78.4708 100.329H72.9839V105.816H78.4708V100.329Z" fill="#0065FF"/>
<path d="M78.4708 94.0479H72.9839V99.5349H78.4708V94.0479Z" fill="#0065FF"/>
<path d="M89.1489 125.237H83.6619V130.724H89.1489V125.237Z" fill="#0065FF"/>
<path d="M89.1489 118.956H83.6619V124.443H89.1489V118.956Z" fill="#0065FF"/>
<path d="M89.1489 112.747H83.6619V118.234H89.1489V112.747Z" fill="#0065FF"/>
<path d="M89.1489 106.538H83.6619V112.025H89.1489V106.538Z" fill="#0065FF"/>
<path d="M89.1489 100.329H83.6619V105.816H89.1489V100.329Z" fill="#0065FF"/>
<path d="M89.1489 94.0479H83.6619V99.5349H89.1489V94.0479Z" fill="#0065FF"/>
<path d="M89.1489 87.8389H83.6619V93.3259H89.1489V87.8389Z" fill="#0065FF"/>
<path d="M95.4301 125.237H89.943V130.724H95.4301V125.237Z" fill="#0065FF"/>
<path d="M95.4301 118.956H89.943V124.443H95.4301V118.956Z" fill="#0065FF"/>
<path d="M95.4301 112.747H89.943V118.234H95.4301V112.747Z" fill="#0065FF"/>
<path d="M95.4301 106.538H89.943V112.025H95.4301V106.538Z" fill="#0065FF"/>
<path d="M95.4301 100.329H89.943V105.816H95.4301V100.329Z" fill="#0065FF"/>
<path d="M95.4301 94.0479H89.943V99.5349H95.4301V94.0479Z" fill="#0065FF"/>
<path d="M95.4301 87.8389H89.943V93.3259H95.4301V87.8389Z" fill="#0065FF"/>
<path d="M101.639 106.538H96.152V112.025H101.639V106.538Z" fill="#0065FF"/>
<path d="M101.639 100.329H96.152V105.816H101.639V100.329Z" fill="#0065FF"/>
<path d="M101.639 94.0479H96.152V99.5349H101.639V94.0479Z" fill="#0065FF"/>
<path d="M107.848 112.747H102.361V118.234H107.848V112.747Z" fill="#0065FF"/>
<path d="M107.848 106.538H102.361V112.025H107.848V106.538Z" fill="#0065FF"/>
<path d="M107.848 100.329H102.361V105.816H107.848V100.329Z" fill="#0065FF"/>
<path d="M114.057 125.237H108.57V130.724H114.057V125.237Z" fill="#0065FF"/>
<path d="M114.057 118.956H108.57V124.443H114.057V118.956Z" fill="#0065FF"/>
<path d="M114.057 112.747H108.57V118.234H114.057V112.747Z" fill="#0065FF"/>
<path d="M114.057 106.538H108.57V112.025H114.057V106.538Z" fill="#0065FF"/>
<path d="M114.057 100.329H108.57V105.816H114.057V100.329Z" fill="#0065FF"/>
<path d="M114.057 94.0479H108.57V99.5349H114.057V94.0479Z" fill="#0065FF"/>
<path d="M114.057 87.8389H108.57V93.3259H114.057V87.8389Z" fill="#0065FF"/>
<path d="M120.338 125.237H114.851V130.724H120.338V125.237Z" fill="#0065FF"/>
<path d="M120.338 118.956H114.851V124.443H120.338V118.956Z" fill="#0065FF"/>
<path d="M120.338 112.747H114.851V118.234H120.338V112.747Z" fill="#0065FF"/>
<path d="M120.338 106.538H114.851V112.025H120.338V106.538Z" fill="#0065FF"/>
<path d="M120.338 100.329H114.851V105.816H120.338V100.329Z" fill="#0065FF"/>
<path d="M120.338 94.0479H114.851V99.5349H120.338V94.0479Z" fill="#0065FF"/>
<path d="M120.338 87.8389H114.851V93.3259H120.338V87.8389Z" fill="#0065FF"/>
<path d="M5.48698 125.237H0V130.724H5.48698V125.237Z" fill="#0065FF"/>
<path d="M5.48698 118.956H0V124.443H5.48698V118.956Z" fill="#0065FF"/>
<path d="M5.48698 112.747H0V118.234H5.48698V112.747Z" fill="#0065FF"/>
<path d="M5.48698 106.538H0V112.025H5.48698V106.538Z" fill="#0065FF"/>
<path d="M5.48698 100.329H0V105.816H5.48698V100.329Z" fill="#0065FF"/>
<path d="M5.48698 94.0479H0V99.5349H5.48698V94.0479Z" fill="#0065FF"/>
<path d="M11.696 125.237H6.20902V130.724H11.696V125.237Z" fill="#0065FF"/>
<path d="M11.696 118.956H6.20902V124.443H11.696V118.956Z" fill="#0065FF"/>
<path d="M11.696 112.747H6.20902V118.234H11.696V112.747Z" fill="#0065FF"/>
<path d="M11.696 106.538H6.20902V112.025H11.696V106.538Z" fill="#0065FF"/>
<path d="M11.696 100.329H6.20902V105.816H11.696V100.329Z" fill="#0065FF"/>
<path d="M11.696 94.0479H6.20902V99.5349H11.696V94.0479Z" fill="#0065FF"/>
<path d="M11.696 87.8389H6.20902V93.3259H11.696V87.8389Z" fill="#0065FF"/>
<path d="M5.48698 87.8389H0V93.3259H5.48698V87.8389Z" fill="#0065FF"/>
<path d="M17.9771 125.237H12.4901V130.724H17.9771V125.237Z" fill="#0065FF"/>
<path d="M17.9771 118.956H12.4901V124.443H17.9771V118.956Z" fill="#0065FF"/>
<path d="M17.9771 106.538H12.4901V112.025H17.9771V106.538Z" fill="#0065FF"/>
<path d="M17.9771 94.0479H12.4901V99.5349H17.9771V94.0479Z" fill="#0065FF"/>
<path d="M17.9771 87.8389H12.4901V93.3259H17.9771V87.8389Z" fill="#0065FF"/>
<path d="M24.186 125.237H18.699V130.724H24.186V125.237Z" fill="#0065FF"/>
<path d="M24.186 118.956H18.699V124.443H24.186V118.956Z" fill="#0065FF"/>
<path d="M24.186 106.538H18.699V112.025H24.186V106.538Z" fill="#0065FF"/>
<path d="M24.186 94.0479H18.699V99.5349H24.186V94.0479Z" fill="#0065FF"/>
<path d="M24.186 87.8389H18.699V93.3259H24.186V87.8389Z" fill="#0065FF"/>
<path d="M30.395 125.237H24.908V130.724H30.395V125.237Z" fill="#0065FF"/>
<path d="M30.395 118.956H24.908V124.443H30.395V118.956Z" fill="#0065FF"/>
<path d="M30.395 112.747H24.908V118.234H30.395V112.747Z" fill="#0065FF"/>
<path d="M30.395 106.538H24.908V112.025H30.395V106.538Z" fill="#0065FF"/>
<path d="M30.395 100.329H24.908V105.816H30.395V100.329Z" fill="#0065FF"/>
<path d="M30.395 94.0479H24.908V99.5349H30.395V94.0479Z" fill="#0065FF"/>
<path d="M30.395 87.8389H24.908V93.3259H30.395V87.8389Z" fill="#0065FF"/>
<path d="M36.6761 118.956H31.1891V124.443H36.6761V118.956Z" fill="#0065FF"/>
<path d="M36.6761 112.747H31.1891V118.234H36.6761V112.747Z" fill="#0065FF"/>
<path d="M36.6761 106.538H31.1891V112.025H36.6761V106.538Z" fill="#0065FF"/>
<path d="M36.6761 100.329H31.1891V105.816H36.6761V100.329Z" fill="#0065FF"/>
<path d="M36.6761 94.0479H31.1891V99.5349H36.6761V94.0479Z" fill="#0065FF"/>
<path d="M145.32 58.0472H135.084V68.2829H145.32V58.0472Z" fill="#FAC400"/>
<path d="M145.32 46.4647H135.084V56.7003H145.32V46.4647Z" fill="#FAC400"/>
<path d="M145.32 34.8821H135.084V45.1178H145.32V34.8821Z" fill="#FAC400"/>
<path d="M145.32 23.2996H135.084V33.5353H145.32V23.2996Z" fill="#FAC400"/>
<path d="M145.32 11.5825H135.084V21.8182H145.32V11.5825Z" fill="#FAC400"/>
<path d="M157.037 69.7643H146.801V80H157.037V69.7643Z" fill="#FAC400"/>
<path d="M157.037 58.0472H146.801V68.2829H157.037V58.0472Z" fill="#FAC400"/>
<path d="M157.037 46.4647H146.801V56.7003H157.037V46.4647Z" fill="#FAC400"/>
<path d="M157.037 34.8821H146.801V45.1178H157.037V34.8821Z" fill="#FAC400"/>
<path d="M157.037 23.2996H146.801V33.5353H157.037V23.2996Z" fill="#FAC400"/>
<path d="M157.037 11.5825H146.801V21.8182H157.037V11.5825Z" fill="#FAC400"/>
<path d="M157.037 0H146.801V10.2357H157.037V0Z" fill="#FAC400"/>
<path d="M168.62 69.7643H158.384V80H168.62V69.7643Z" fill="#FAC400"/>
<path d="M168.62 58.0472H158.384V68.2829H168.62V58.0472Z" fill="#FAC400"/>
<path d="M168.62 11.5825H158.384V21.8182H168.62V11.5825Z" fill="#FAC400"/>
<path d="M168.62 0H158.384V10.2357H168.62V0Z" fill="#FAC400"/>
<path d="M180.202 69.7643H169.966V80H180.202V69.7643Z" fill="#FAC400"/>
<path d="M180.202 58.0472H169.966V68.2829H180.202V58.0472Z" fill="#FAC400"/>
<path d="M180.202 11.5825H169.966V21.8182H180.202V11.5825Z" fill="#FAC400"/>
<path d="M180.202 0H169.966V10.2357H180.202V0Z" fill="#FAC400"/>
<path d="M191.785 69.7643H181.549V80H191.785V69.7643Z" fill="#FAC400"/>
<path d="M191.785 58.0472H181.549V68.2829H191.785V58.0472Z" fill="#FAC400"/>
<path d="M191.785 11.5825H181.549V21.8182H191.785V11.5825Z" fill="#FAC400"/>
<path d="M191.785 0H181.549V10.2357H191.785V0Z" fill="#FAC400"/>
<path d="M203.502 58.0472H193.266V68.2829H203.502V58.0472Z" fill="#FAC400"/>
<path d="M203.502 11.5825H193.266V21.8182H203.502V11.5825Z" fill="#FAC400"/>
<path d="M89.4277 69.7643H79.192V80H89.4277V69.7643Z" fill="#F9CC01"/>
<path d="M89.4277 0H79.192V10.2357H89.4277V0Z" fill="#F9CC01"/>
<path d="M101.01 69.7643H90.7745V80H101.01V69.7643Z" fill="#F9CC01"/>
<path d="M101.01 58.0472H90.7745V68.2829H101.01V58.0472Z" fill="#F9CC01"/>
<path d="M101.01 46.4647H90.7745V56.7003H101.01V46.4647Z" fill="#F9CC01"/>
<path d="M101.01 34.8821H90.7745V45.1178H101.01V34.8821Z" fill="#F9CC01"/>
<path d="M101.01 23.2996H90.7745V33.5353H101.01V23.2996Z" fill="#F9CC01"/>
<path d="M101.01 11.5825H90.7745V21.8182H101.01V11.5825Z" fill="#F9CC01"/>
<path d="M101.01 0H90.7745V10.2357H101.01V0Z" fill="#F9CC01"/>
<path d="M112.593 69.7643H102.357V80H112.593V69.7643Z" fill="#F9CC01"/>
<path d="M112.593 58.0472H102.357V68.2829H112.593V58.0472Z" fill="#F9CC01"/>
<path d="M112.593 46.4647H102.357V56.7003H112.593V46.4647Z" fill="#F9CC01"/>
<path d="M112.593 34.8821H102.357V45.1178H112.593V34.8821Z" fill="#F9CC01"/>
<path d="M112.593 23.2996H102.357V33.5353H112.593V23.2996Z" fill="#F9CC01"/>
<path d="M112.593 11.5825H102.357V21.8182H112.593V11.5825Z" fill="#F9CC01"/>
<path d="M112.593 0H102.357V10.2357H112.593V0Z" fill="#F9CC01"/>
<path d="M124.31 69.7643H114.074V80H124.31V69.7643Z" fill="#F9CC01"/>
<path d="M124.31 0H114.074V10.2357H124.31V0Z" fill="#F9CC01"/>
<path d="M10.2357 69.7643H0V80H10.2357V69.7643Z" fill="#FAC400"/>
<path d="M10.2357 58.0472H0V68.2829H10.2357V58.0472Z" fill="#FAC400"/>
<path d="M10.2357 46.4647H0V56.7003H10.2357V46.4647Z" fill="#FAC400"/>
<path d="M10.2357 34.8821H0V45.1178H10.2357V34.8821Z" fill="#FAC400"/>
<path d="M10.2357 23.2996H0V33.5353H10.2357V23.2996Z" fill="#FAC400"/>
<path d="M10.2357 11.5825H0V21.8182H10.2357V11.5825Z" fill="#FAC400"/>
<path d="M10.2357 0H0V10.2357H10.2357V0Z" fill="#FAC400"/>
<path d="M21.9528 69.7643H11.7172V80H21.9528V69.7643Z" fill="#FAC400"/>
<path d="M21.9528 58.0472H11.7172V68.2829H21.9528V58.0472Z" fill="#FAC400"/>
<path d="M21.9528 46.4647H11.7172V56.7003H21.9528V46.4647Z" fill="#FAC400"/>
<path d="M21.9528 34.8821H11.7172V45.1178H21.9528V34.8821Z" fill="#FAC400"/>
<path d="M21.9528 23.2996H11.7172V33.5353H21.9528V23.2996Z" fill="#FAC400"/>
<path d="M21.9528 11.5825H11.7172V21.8182H21.9528V11.5825Z" fill="#FAC400"/>
<path d="M21.9528 0H11.7172V10.2357H21.9528V0Z" fill="#FAC400"/>
<path d="M33.5353 34.8821H23.2997V45.1178H33.5353V34.8821Z" fill="#FAC400"/>
<path d="M45.1179 46.4647H34.8821V56.7003H45.1179V46.4647Z" fill="#FAC400"/>
<path d="M45.1179 34.8821H34.8821V45.1178H45.1179V34.8821Z" fill="#FAC400"/>
<path d="M45.1179 23.2996H34.8821V33.5353H45.1179V23.2996Z" fill="#FAC400"/>
<path d="M56.7003 58.0472H46.4646V68.2829H56.7003V58.0472Z" fill="#FAC400"/>
<path d="M56.7003 46.4647H46.4646V56.7003H56.7003V46.4647Z" fill="#FAC400"/>
<path d="M56.7003 23.2996H46.4646V33.5353H56.7003V23.2996Z" fill="#FAC400"/>
<path d="M56.7003 11.5825H46.4646V21.8182H56.7003V11.5825Z" fill="#FAC400"/>
<path d="M68.4175 69.7643H58.1818V80H68.4175V69.7643Z" fill="#FAC400"/>
<path d="M68.4175 58.0472H58.1818V68.2829H68.4175V58.0472Z" fill="#FAC400"/>
<path d="M68.4175 11.5825H58.1818V21.8182H68.4175V11.5825Z" fill="#FAC400"/>
<path d="M68.4175 0H58.1818V10.2357H68.4175V0Z" fill="#FAC400"/>
<path d="M224.512 69.7643H214.276V80H224.512V69.7643Z" fill="#FAC400"/>
<path d="M224.512 58.0472H214.276V68.2829H224.512V58.0472Z" fill="#FAC400"/>
<path d="M224.512 46.4647H214.276V56.7003H224.512V46.4647Z" fill="#FAC400"/>
<path d="M224.512 34.8821H214.276V45.1178H224.512V34.8821Z" fill="#FAC400"/>
<path d="M224.512 23.2996H214.276V33.5353H224.512V23.2996Z" fill="#FAC400"/>
<path d="M224.512 11.5825H214.276V21.8182H224.512V11.5825Z" fill="#FAC400"/>
<path d="M224.512 0H214.276V10.2357H224.512V0Z" fill="#FAC400"/>
<path d="M236.229 69.7643H225.993V80H236.229V69.7643Z" fill="#FAC400"/>
<path d="M236.229 58.0472H225.993V68.2829H236.229V58.0472Z" fill="#FAC400"/>
<path d="M236.229 46.4647H225.993V56.7003H236.229V46.4647Z" fill="#FAC400"/>
<path d="M236.229 34.8821H225.993V45.1178H236.229V34.8821Z" fill="#FAC400"/>
<path d="M236.229 23.2996H225.993V33.5353H236.229V23.2996Z" fill="#FAC400"/>
<path d="M236.229 11.5825H225.993V21.8182H236.229V11.5825Z" fill="#FAC400"/>
<path d="M236.229 0H225.993V10.2357H236.229V0Z" fill="#FAC400"/>
<path d="M247.812 34.8821H237.576V45.1178H247.812V34.8821Z" fill="#FAC400"/>
<path d="M259.394 46.4647H249.158V56.7003H259.394V46.4647Z" fill="#FAC400"/>
<path d="M259.394 34.8821H249.158V45.1178H259.394V34.8821Z" fill="#FAC400"/>
<path d="M259.394 23.2996H249.158V33.5353H259.394V23.2996Z" fill="#FAC400"/>
<path d="M270.977 58.0472H260.741V68.2829H270.977V58.0472Z" fill="#FAC400"/>
<path d="M270.977 46.4647H260.741V56.7003H270.977V46.4647Z" fill="#FAC400"/>
<path d="M270.977 23.2996H260.741V33.5353H270.977V23.2996Z" fill="#FAC400"/>
<path d="M270.977 11.5825H260.741V21.8182H270.977V11.5825Z" fill="#FAC400"/>
<path d="M282.694 69.7643H272.458V80H282.694V69.7643Z" fill="#FAC400"/>
<path d="M282.694 58.0472H272.458V68.2829H282.694V58.0472Z" fill="#FAC400"/>
<path d="M282.694 11.5825H272.458V21.8182H282.694V11.5825Z" fill="#FAC400"/>
<path d="M282.694 0H272.458V10.2357H282.694V0Z" fill="#FAC400"/>
<path d="M244.478 124.445H241.602V127.32H244.478V124.445Z" fill="#FAC400"/>
<path d="M244.478 121.19H241.602V124.066H244.478V121.19Z" fill="#FAC400"/>
<path d="M244.478 117.936H241.602V120.812H244.478V117.936Z" fill="#FAC400"/>
<path d="M244.478 114.682H241.602V117.558H244.478V114.682Z" fill="#FAC400"/>
<path d="M244.478 111.39H241.602V114.265H244.478V111.39Z" fill="#FAC400"/>
<path d="M247.733 127.737H244.857V130.613H247.733V127.737Z" fill="#FAC400"/>
<path d="M247.733 124.445H244.857V127.32H247.733V124.445Z" fill="#FAC400"/>
<path d="M247.733 121.19H244.857V124.066H247.733V121.19Z" fill="#FAC400"/>
<path d="M247.733 117.936H244.857V120.812H247.733V117.936Z" fill="#FAC400"/>
<path d="M247.733 114.682H244.857V117.558H247.733V114.682Z" fill="#FAC400"/>
<path d="M247.733 111.39H244.857V114.265H247.733V111.39Z" fill="#FAC400"/>
<path d="M247.733 108.135H244.857V111.011H247.733V108.135Z" fill="#FAC400"/>
<path d="M251.025 127.737H248.149V130.613H251.025V127.737Z" fill="#FAC400"/>
<path d="M251.025 124.445H248.149V127.32H251.025V124.445Z" fill="#FAC400"/>
<path d="M251.025 111.39H248.149V114.265H251.025V111.39Z" fill="#FAC400"/>
<path d="M251.025 108.135H248.149V111.011H251.025V108.135Z" fill="#FAC400"/>
<path d="M254.279 127.737H251.403V130.613H254.279V127.737Z" fill="#FAC400"/>
<path d="M254.279 124.445H251.403V127.32H254.279V124.445Z" fill="#FAC400"/>
<path d="M254.279 111.39H251.403V114.265H254.279V111.39Z" fill="#FAC400"/>
<path d="M254.279 108.135H251.403V111.011H254.279V108.135Z" fill="#FAC400"/>
<path d="M257.533 127.737H254.657V130.613H257.533V127.737Z" fill="#FAC400"/>
<path d="M257.533 124.445H254.657V127.32H257.533V124.445Z" fill="#FAC400"/>
<path d="M257.533 121.19H254.657V124.066H257.533V121.19Z" fill="#FAC400"/>
<path d="M257.533 117.936H254.657V120.812H257.533V117.936Z" fill="#FAC400"/>
<path d="M257.533 114.682H254.657V117.558H257.533V114.682Z" fill="#FAC400"/>
<path d="M257.533 111.39H254.657V114.265H257.533V111.39Z" fill="#FAC400"/>
<path d="M257.533 108.135H254.657V111.011H257.533V108.135Z" fill="#FAC400"/>
<path d="M260.788 124.445H257.912V127.32H260.788V124.445Z" fill="#FAC400"/>
<path d="M260.788 121.19H257.912V124.066H260.788V121.19Z" fill="#FAC400"/>
<path d="M260.788 117.936H257.912V120.812H260.788V117.936Z" fill="#FAC400"/>
<path d="M260.788 114.682H257.912V117.558H260.788V114.682Z" fill="#FAC400"/>
<path d="M260.788 111.39H257.912V114.265H260.788V111.39Z" fill="#FAC400"/>
<path d="M266.691 126.601H263.815V129.477H266.691V126.601Z" fill="#FAC400"/>
<path d="M266.691 123.309H263.815V126.185H266.691V123.309Z" fill="#FAC400"/>
<path d="M266.691 120.055H263.815V122.931H266.691V120.055Z" fill="#FAC400"/>
<path d="M266.691 116.801H263.815V119.677H266.691V116.801Z" fill="#FAC400"/>
<path d="M266.691 113.546H263.815V116.422H266.691V113.546Z" fill="#FAC400"/>
<path d="M266.691 110.254H263.815V113.13H266.691V110.254Z" fill="#FAC400"/>
<path d="M266.691 107H263.815V109.876H266.691V107Z" fill="#FAC400"/>
<path d="M269.945 126.601H267.069V129.477H269.945V126.601Z" fill="#FAC400"/>
<path d="M269.945 123.309H267.069V126.185H269.945V123.309Z" fill="#FAC400"/>
<path d="M269.945 120.055H267.069V122.931H269.945V120.055Z" fill="#FAC400"/>
<path d="M269.945 116.801H267.069V119.677H269.945V116.801Z" fill="#FAC400"/>
<path d="M269.945 113.546H267.069V116.422H269.945V113.546Z" fill="#FAC400"/>
<path d="M269.945 110.254H267.069V113.13H269.945V110.254Z" fill="#FAC400"/>
<path d="M273.199 116.801H270.323V119.677H273.199V116.801Z" fill="#FAC400"/>
<path d="M273.199 113.546H270.323V116.422H273.199V113.546Z" fill="#FAC400"/>
<path d="M276.491 116.801H273.616V119.677H276.491V116.801Z" fill="#FAC400"/>
<path d="M276.491 113.546H273.616V116.422H276.491V113.546Z" fill="#FAC400"/>
<path d="M279.746 126.601H276.87V129.477H279.746V126.601Z" fill="#FAC400"/>
<path d="M279.746 123.309H276.87V126.185H279.746V123.309Z" fill="#FAC400"/>
<path d="M279.746 120.055H276.87V122.931H279.746V120.055Z" fill="#FAC400"/>
<path d="M279.746 116.801H276.87V119.677H279.746V116.801Z" fill="#FAC400"/>
<path d="M279.746 113.546H276.87V116.422H279.746V113.546Z" fill="#FAC400"/>
<path d="M279.746 110.254H276.87V113.13H279.746V110.254Z" fill="#FAC400"/>
<path d="M283 126.601H280.124V129.477H283V126.601Z" fill="#FAC400"/>
<path d="M283 123.309H280.124V126.185H283V123.309Z" fill="#FAC400"/>
<path d="M283 120.055H280.124V122.931H283V120.055Z" fill="#FAC400"/>
<path d="M283 116.801H280.124V119.677H283V116.801Z" fill="#FAC400"/>
<path d="M283 113.546H280.124V116.422H283V113.546Z" fill="#FAC400"/>
<path d="M283 110.254H280.124V113.13H283V110.254Z" fill="#FAC400"/>
<path d="M283 107H280.124V109.876H283V107Z" fill="#FAC400"/>
<path d="M222.228 124.445H219.352V127.32H222.228V124.445Z" fill="#FAC400"/>
<path d="M222.228 121.19H219.352V124.066H222.228V121.19Z" fill="#FAC400"/>
<path d="M222.228 117.936H219.352V120.812H222.228V117.936Z" fill="#FAC400"/>
<path d="M222.228 114.682H219.352V117.558H222.228V114.682Z" fill="#FAC400"/>
<path d="M222.228 111.39H219.352V114.265H222.228V111.39Z" fill="#FAC400"/>
<path d="M225.52 127.737H222.644V130.613H225.52V127.737Z" fill="#FAC400"/>
<path d="M225.52 124.445H222.644V127.32H225.52V124.445Z" fill="#FAC400"/>
<path d="M225.52 121.19H222.644V124.066H225.52V121.19Z" fill="#FAC400"/>
<path d="M225.52 117.936H222.644V120.812H225.52V117.936Z" fill="#FAC400"/>
<path d="M225.52 114.682H222.644V117.558H225.52V114.682Z" fill="#FAC400"/>
<path d="M225.52 111.39H222.644V114.265H225.52V111.39Z" fill="#FAC400"/>
<path d="M225.52 108.135H222.644V111.011H225.52V108.135Z" fill="#FAC400"/>
<path d="M228.774 127.737H225.899V130.613H228.774V127.737Z" fill="#FAC400"/>
<path d="M228.774 124.445H225.899V127.32H228.774V124.445Z" fill="#FAC400"/>
<path d="M228.774 111.39H225.899V114.265H228.774V111.39Z" fill="#FAC400"/>
<path d="M228.774 108.135H225.899V111.011H228.774V108.135Z" fill="#FAC400"/>
<path d="M232.029 127.737H229.153V130.613H232.029V127.737Z" fill="#FAC400"/>
<path d="M232.029 124.445H229.153V127.32H232.029V124.445Z" fill="#FAC400"/>
<path d="M232.029 111.39H229.153V114.265H232.029V111.39Z" fill="#FAC400"/>
<path d="M232.029 108.135H229.153V111.011H232.029V108.135Z" fill="#FAC400"/>
<path d="M235.283 127.737H232.407V130.613H235.283V127.737Z" fill="#FAC400"/>
<path d="M235.283 124.445H232.407V127.32H235.283V124.445Z" fill="#FAC400"/>
<path d="M235.283 111.39H232.407V114.265H235.283V111.39Z" fill="#FAC400"/>
<path d="M235.283 108.135H232.407V111.011H235.283V108.135Z" fill="#FAC400"/>
<path d="M238.575 124.445H235.699V127.32H238.575V124.445Z" fill="#FAC400"/>
<path d="M238.575 111.39H235.699V114.265H238.575V111.39Z" fill="#FAC400"/>
<path d="M210.649 124.407H208V127.434H210.649V124.407Z" fill="#FAC400"/>
<path d="M210.649 127.812H208V130.84H210.649V127.812Z" fill="#FAC400"/>
<path d="M213.676 124.407H211.027V127.434H213.676V124.407Z" fill="#FAC400"/>
<path d="M213.676 127.812H211.027V130.84H213.676V127.812Z" fill="#FAC400"/>
</svg>
